<?xml version="1.0" encoding="UTF-8" standalone="no"?>
<!-- Created with Inkscape (http://www.inkscape.org/) -->

<svg
   xmlns:dc="http://purl.org/dc/elements/1.1/"
   xmlns:cc="http://creativecommons.org/ns#"
   xmlns:rdf="http://www.w3.org/1999/02/22-rdf-syntax-ns#"
   xmlns:svg="http://www.w3.org/2000/svg"
   xmlns="http://www.w3.org/2000/svg"
   xmlns:sodipodi="http://sodipodi.sourceforge.net/DTD/sodipodi-0.dtd"
   xmlns:inkscape="http://www.inkscape.org/namespaces/inkscape"
   width="50"
   height="50"
   id="svg2"
   version="1.1"
   inkscape:version="0.91 r13725"
   inkscape:export-filename="C:\Users\Rémi\Documents\GitHub\PayPoint\PayPoint\data\images\menu.png"
   inkscape:export-xdpi="5.5263319"
   inkscape:export-ydpi="5.5263319"
   sodipodi:docname="cashout.svg">
  <defs
     id="defs4" />
  <sodipodi:namedview
     id="base"
     pagecolor="#ffffff"
     bordercolor="#666666"
     borderopacity="1.0"
     inkscape:pageopacity="0.0"
     inkscape:pageshadow="2"
     inkscape:zoom="5.5818295"
     inkscape:cx="38.319541"
     inkscape:cy="-1.3099038"
     inkscape:document-units="px"
     inkscape:current-layer="layer1"
     showgrid="false"
     fit-margin-top="0"
     fit-margin-left="0"
     fit-margin-right="0"
     fit-margin-bottom="0"
     showguides="true"
     inkscape:guide-bbox="true"
     inkscape:window-width="1280"
     inkscape:window-height="961"
     inkscape:window-x="1912"
     inkscape:window-y="42"
     inkscape:window-maximized="1"
     inkscape:snap-bbox="true"
     inkscape:bbox-paths="true"
     inkscape:bbox-nodes="true"
     inkscape:snap-bbox-edge-midpoints="true"
     inkscape:snap-bbox-midpoints="true"
     inkscape:object-paths="true"
     inkscape:snap-intersection-paths="true"
     inkscape:snap-smooth-nodes="true"
     inkscape:snap-midpoints="true"
     inkscape:snap-object-midpoints="true"
     inkscape:snap-center="true"
     inkscape:snap-text-baseline="true"
     inkscape:snap-page="true"
     inkscape:snap-global="true"
     inkscape:object-nodes="true">
    <sodipodi:guide
       position="29.227412,691.29182"
       orientation="0,1"
       id="guide4155" />
  </sodipodi:namedview>
  <metadata
     id="metadata7">
    <rdf:RDF>
      <cc:Work
         rdf:about="">
        <dc:format>image/svg+xml</dc:format>
        <dc:type
           rdf:resource="http://purl.org/dc/dcmitype/StillImage" />
        <dc:title />
      </cc:Work>
    </rdf:RDF>
  </metadata>
  <g
     inkscape:label="Calque 1"
     inkscape:groupmode="layer"
     id="layer1"
     transform="translate(-126.57143,-663.79073)">
    <g
       id="g4593"
       transform="matrix(1.4218151,0,0,1.4218151,-127.63825,-283.53549)">
      <rect
         y="675.98199"
         x="134.05078"
         height="16.204618"
         width="32.166317"
         id="rect4585"
         style="opacity:1;fill:none;fill-opacity:1;stroke:#000000;stroke-width:2.99968681;stroke-linecap:butt;stroke-linejoin:round;stroke-miterlimit:4;stroke-dasharray:none;stroke-dashoffset:0;stroke-opacity:1" />
      <rect
         style="opacity:1;fill:none;fill-opacity:1;stroke:#000000;stroke-width:3;stroke-linecap:butt;stroke-linejoin:round;stroke-miterlimit:4;stroke-dasharray:none;stroke-dashoffset:0;stroke-opacity:1"
         id="rect4587"
         width="15.951263"
         height="6.7036095"
         x="142.15831"
         y="669.27838" />
      <rect
         y="689.65302"
         x="140.54314"
         height="8.7938938"
         width="19.18161"
         id="rect4589"
         style="opacity:1;fill:#ffffff;fill-opacity:1;stroke:#000000;stroke-width:3;stroke-linecap:butt;stroke-linejoin:round;stroke-miterlimit:4;stroke-dasharray:none;stroke-dashoffset:0;stroke-opacity:1" />
      <circle
         r="1.197095"
         cy="679.8739"
         cx="161.75453"
         id="path4591"
         style="opacity:1;fill:#000000;fill-opacity:1;stroke:none;stroke-width:3;stroke-linecap:butt;stroke-linejoin:round;stroke-miterlimit:4;stroke-dasharray:none;stroke-dashoffset:0;stroke-opacity:1" />
    </g>
    <g
       id="g4625"
       transform="translate(-5.5747928,73.981202)"
       style="fill:#000000">
      <path
         style="color:#000000;font-style:normal;font-variant:normal;font-weight:normal;font-stretch:normal;font-size:medium;line-height:normal;font-family:sans-serif;text-indent:0;text-align:start;text-decoration:none;text-decoration-line:none;text-decoration-style:solid;text-decoration-color:#000000;letter-spacing:normal;word-spacing:normal;text-transform:none;direction:ltr;block-progression:tb;writing-mode:lr-tb;baseline-shift:baseline;text-anchor:start;white-space:normal;clip-rule:nonzero;display:inline;overflow:visible;visibility:visible;opacity:1;isolation:auto;mix-blend-mode:normal;color-interpolation:sRGB;color-interpolation-filters:linearRGB;solid-color:#000000;solid-opacity:1;fill:#000000;fill-opacity:1;fill-rule:nonzero;stroke:none;stroke-width:4.26499987;stroke-linecap:butt;stroke-linejoin:round;stroke-miterlimit:4;stroke-dasharray:none;stroke-dashoffset:0;stroke-opacity:1;color-rendering:auto;image-rendering:auto;shape-rendering:auto;text-rendering:auto;enable-background:accumulate"
         d="m 147.17943,668.19492 c -0.28514,-7e-5 -0.5674,0.0571 -0.83008,0.16797 -0.25311,0.10663 -0.48324,0.26116 -0.67774,0.45507 l -0.0215,0.0234 -7.30469,7.30274 -0.008,0.01 c -0.0324,0.0335 -0.0636,0.068 -0.0937,0.10352 -0.0159,0.0173 -0.0315,0.0349 -0.0469,0.0527 -0.0335,0.0417 -0.0654,0.0847 -0.0957,0.12891 -0.01,0.0136 -0.0197,0.0272 -0.0293,0.041 -0.0226,0.0358 -0.044,0.0723 -0.0644,0.10938 -0.0169,0.0283 -0.0332,0.0569 -0.0488,0.0859 -0.0172,0.0347 -0.0335,0.0699 -0.0488,0.10546 -0.0122,0.0252 -0.0239,0.0506 -0.0351,0.0762 -0.0148,0.0387 -0.0285,0.0777 -0.041,0.11718 -0.0112,0.0323 -0.0216,0.0649 -0.0312,0.0977 -0.009,0.0349 -0.0178,0.0701 -0.0254,0.10547 -0.008,0.0304 -0.015,0.061 -0.0215,0.0918 -0.006,0.037 -0.0114,0.0741 -0.0156,0.11132 -0.006,0.0376 -0.0101,0.0754 -0.0137,0.11328 -0.004,0.0526 -0.006,0.10542 -0.006,0.15821 l 0,29.60156 c -5e-5,1.17794 0.95487,2.13287 2.13281,2.13281 l 23.43555,0 c 1.17794,6e-5 2.13287,-0.95487 2.13281,-2.13281 l 0,-16.93945 4.43262,0 0,4.79844 6.71777,-6.28477 -6.71777,-6.28477 0,4.80039 -4.43262,0 0,-17.01757 c -0.001,-1.17718 -0.95563,-2.13092 -2.13281,-2.13086 l -16.10937,0 z m 2.13085,4.26367 11.84571,0 0,14.88476 -11.64844,0 0,1.48438 0,1.48633 11.64844,0 0,14.80664 -19.16992,0 0,-25.33594 5.19336,0 c 1.17718,-10e-4 2.13091,-0.95563 2.13085,-2.13281 z"
         id="rect4613"
         inkscape:connector-curvature="0"
         sodipodi:nodetypes="ccccccccccccccccccccscccccccccccccccccccccccccccc" />
    </g>
    <g
       id="text3344"
       style="font-style:normal;font-variant:normal;font-weight:600;font-stretch:normal;font-size:40px;line-height:107.00000525%;font-family:sans;-inkscape-font-specification:sans;letter-spacing:0px;word-spacing:0px;fill:#000000;fill-opacity:1;stroke:none;stroke-width:1px;stroke-linecap:butt;stroke-linejoin:miter;stroke-opacity:1"
       transform="matrix(0.68913452,0,0,0.68913452,42.876945,206.48747)">
      <path
         inkscape:connector-curvature="0"
         id="path4165"
         d="m 145.14284,704.46411 -3.16406,0 -0.0195,-5.8789 q -2.4414,-0.0977 -4.72656,-0.54688 -2.28515,-0.44922 -4.45312,-1.25 l 0,-5.11719 q 2.24609,1.15235 4.53125,1.77735 2.30468,0.60547 4.66797,0.68359 l 0,-6.07422 -0.64454,-0.11719 q -4.66796,-0.82031 -6.64062,-2.57812 -1.95313,-1.75781 -1.95313,-5.05859 0,-3.4961 2.38282,-5.44922 2.40234,-1.97266 6.83593,-2.14844 l 0.0195,-4.51172 3.16406,0 0,4.43359 q 1.95312,0.15625 3.90625,0.48829 1.95312,0.33203 3.92578,0.85937 l 0,4.96094 q -1.95313,-0.82031 -3.90625,-1.26953 -1.95313,-0.46875 -3.92578,-0.56641 l 0,5.60547 0.625,0.11719 q 4.96094,0.78125 6.95312,2.61718 2.01172,1.81641 2.01172,5.39063 0,3.59375 -2.38281,5.52734 -2.38281,1.91407 -7.20703,2.1875 l 0,5.91797 z m -3.16406,-22.20703 0,-5.09766 q -1.38672,0.0781 -2.22657,0.76172 -0.82031,0.66407 -0.82031,1.69922 0,1.15235 0.76172,1.81641 0.76172,0.64453 2.28516,0.82031 z m 3.16406,6.36719 0,5.42969 q 1.69922,-0.0195 2.53906,-0.66407 0.85938,-0.64453 0.85938,-1.93359 0,-1.32813 -0.78125,-1.97266 -0.78125,-0.66406 -2.61719,-0.85937 z" />
    </g>
    <path
       style="color:#000000;font-style:normal;font-variant:normal;font-weight:normal;font-stretch:normal;font-size:medium;line-height:normal;font-family:sans-serif;text-indent:0;text-align:start;text-decoration:none;text-decoration-line:none;text-decoration-style:solid;text-decoration-color:#000000;letter-spacing:normal;word-spacing:normal;text-transform:none;direction:ltr;block-progression:tb;writing-mode:lr-tb;baseline-shift:baseline;text-anchor:start;white-space:normal;clip-rule:nonzero;display:inline;overflow:visible;visibility:visible;opacity:1;isolation:auto;mix-blend-mode:normal;color-interpolation:sRGB;color-interpolation-filters:linearRGB;solid-color:#000000;solid-opacity:1;fill:#71c837;fill-opacity:1;fill-rule:evenodd;stroke:#71c837;stroke-width:2.1670506px;stroke-linecap:round;stroke-linejoin:round;stroke-miterlimit:4;stroke-dasharray:none;stroke-dashoffset:0;stroke-opacity:1;color-rendering:auto;image-rendering:auto;shape-rendering:auto;text-rendering:auto;enable-background:accumulate"
       d="m 161.47987,712.70737 0.007,-10.25813 -32.33365,0 0,-2.92438 0,-2.92437 32.32794,0 0,-10.25241 12.50852,13.17678 z"
       id="path3348"
       inkscape:connector-curvature="0"
       sodipodi:nodetypes="ccccccccc" />
  </g>
</svg>
