<?xml version="1.0" encoding="UTF-8" standalone="no"?>
<!-- Created with Inkscape (http://www.inkscape.org/) -->

<svg
   xmlns:dc="http://purl.org/dc/elements/1.1/"
   xmlns:cc="http://creativecommons.org/ns#"
   xmlns:rdf="http://www.w3.org/1999/02/22-rdf-syntax-ns#"
   xmlns:svg="http://www.w3.org/2000/svg"
   xmlns="http://www.w3.org/2000/svg"
   xmlns:sodipodi="http://sodipodi.sourceforge.net/DTD/sodipodi-0.dtd"
   xmlns:inkscape="http://www.inkscape.org/namespaces/inkscape"
   width="488.57001"
   height="488.57001"
   id="svg2"
   version="1.1"
   inkscape:version="0.91 r13725"
   inkscape:export-filename="C:\Users\Rémi\Documents\GitHub\PayPoint\PayPoint\data\images\menu.png"
   inkscape:export-xdpi="5.5263319"
   inkscape:export-ydpi="5.5263319"
   sodipodi:docname="detail.svg">
  <defs
     id="defs4" />
  <sodipodi:namedview
     id="base"
     pagecolor="#ffffff"
     bordercolor="#666666"
     borderopacity="1.0"
     inkscape:pageopacity="0.0"
     inkscape:pageshadow="2"
     inkscape:zoom="0.69999999"
     inkscape:cx="355.13606"
     inkscape:cy="323.71797"
     inkscape:document-units="px"
     inkscape:current-layer="layer1"
     showgrid="false"
     fit-margin-top="0"
     fit-margin-left="0"
     fit-margin-right="0"
     fit-margin-bottom="0"
     showguides="true"
     inkscape:guide-bbox="true"
     inkscape:window-width="1366"
     inkscape:window-height="705"
     inkscape:window-x="-8"
     inkscape:window-y="-8"
     inkscape:window-maximized="1"
     inkscape:snap-bbox="true"
     inkscape:bbox-nodes="true"
     inkscape:bbox-paths="true"
     inkscape:snap-bbox-edge-midpoints="true"
     inkscape:snap-bbox-midpoints="true"
     inkscape:object-paths="true"
     inkscape:snap-intersection-paths="true"
     inkscape:object-nodes="true"
     inkscape:snap-smooth-nodes="true"
     inkscape:snap-midpoints="true"
     inkscape:snap-object-midpoints="true"
     inkscape:snap-center="true"
     inkscape:snap-text-baseline="true"
     inkscape:snap-page="true"
     inkscape:snap-global="true">
    <sodipodi:guide
       position="16.495605,-143.92538"
       orientation="1,0"
       id="guide4145" />
    <sodipodi:guide
       position="472.07439,-143.92538"
       orientation="1,0"
       id="guide4147" />
  </sodipodi:namedview>
  <metadata
     id="metadata7">
    <rdf:RDF>
      <cc:Work
         rdf:about="">
        <dc:format>image/svg+xml</dc:format>
        <dc:type
           rdf:resource="http://purl.org/dc/dcmitype/StillImage" />
        <dc:title></dc:title>
      </cc:Work>
    </rdf:RDF>
  </metadata>
  <g
     inkscape:label="Calque 1"
     inkscape:groupmode="layer"
     id="layer1"
     transform="translate(-126.57143,-225.22072)">
    <g
       id="g3051"
       style="fill:#1a1a1a"
       transform="translate(-615.18361,-47.142153)">
      <rect
         ry="46.132706"
         y="310.5152"
         x="126.57143"
         height="92.265411"
         width="488.57141"
         id="rect2985"
         style="fill:#1a1a1a;fill-opacity:1;stroke:none" />
      <rect
         ry="46.132706"
         y="467.65515"
         x="126.57143"
         height="92.265411"
         width="488.57141"
         id="rect2985-6"
         style="fill:#1a1a1a;fill-opacity:1;stroke:none" />
      <rect
         ry="46.132706"
         y="624.7951"
         x="126.57143"
         height="92.265411"
         width="488.57141"
         id="rect2985-5"
         style="fill:#1a1a1a;fill-opacity:1;stroke:none" />
    </g>
    <g
       id="g4143"
       transform="translate(3.6083985e-6,554.55238)"
       style="fill:#000000">
      <rect
         y="282.4556"
         x="143.06703"
         height="41.416256"
         width="455.5788"
         id="rect4137"
         style="opacity:1;fill:#000000;fill-opacity:1;stroke:none;stroke-width:5.05600023;stroke-linecap:round;stroke-linejoin:round;stroke-miterlimit:4;stroke-dasharray:15.1680007, 15.1680007;stroke-dashoffset:0;stroke-opacity:1" />
      <rect
         style="opacity:1;fill:#000000;fill-opacity:1;stroke:none;stroke-width:5.05600023;stroke-linecap:round;stroke-linejoin:round;stroke-miterlimit:4;stroke-dasharray:15.1680007, 15.1680007;stroke-dashoffset:0;stroke-opacity:1"
         id="rect4139"
         width="455.5788"
         height="41.416256"
         x="143.06703"
         y="443.06985" />
      <rect
         y="603.68408"
         x="143.06703"
         height="41.416256"
         width="455.5788"
         id="rect4141"
         style="opacity:1;fill:#000000;fill-opacity:1;stroke:none;stroke-width:5.05600023;stroke-linecap:round;stroke-linejoin:round;stroke-miterlimit:4;stroke-dasharray:15.1680007, 15.1680007;stroke-dashoffset:0;stroke-opacity:1" />
    </g>
    <path
       style="fill:none;fill-rule:evenodd;stroke:#000000;stroke-width:36.2442131;stroke-linecap:butt;stroke-linejoin:miter;stroke-miterlimit:4;stroke-dasharray:none;stroke-opacity:1"
       d="m 181.25873,-221.42609 c -28.23885,15.09022 22.47644,44.07721 0,57.05399 -22.47645,12.97678 19.43646,40.85693 0,57.05399 -19.43647,16.197052 23.82237,32.550992 0,57.054002 -23.82237,24.503 -29.58735,42.3880702 0,57.0539802 29.58734,14.6659298 112.27738,-85.4284302 112.27738,-85.4284302 61.50387,108.3751 175.23085,46.82698 191.90887,0 0,0 77.81642,89.08966 86.34374,89.08966 15.02528,0 7.08344,-53.02156 0,-60.105 -26.69133,-26.69133 25.06123,-45.6359 0,-60.105022 -25.06124,-14.46912 21.07208,-47.93903 0,-60.105 -21.0721,-12.16597 27.66686,-48.38228 0,-60.105 -27.66687,-11.72272 -88.93262,62.02389 -88.93262,62.02389 -26.88519,-34.66571 -139.9919,-64.79877 -189.31999,21.57393 0,0 -84.03854,-90.14521 -112.27738,-75.05499 z"
       id="path4143"
       inkscape:connector-curvature="0"
       sodipodi:nodetypes="zzzzzccsszzzccz" />
    <g
       id="g4164"
       style="fill:none;stroke:#000000;stroke-width:36.62496948;stroke-miterlimit:4;stroke-dasharray:none"
       transform="matrix(0.81911331,0,0,0.81911331,463.44638,-240.22266)">
      <rect
         ry="0"
         y="238.80594"
         x="463.98544"
         height="208.54385"
         width="269.32074"
         id="rect4149"
         style="opacity:1;fill:none;fill-opacity:0.55900622;stroke:#000000;stroke-width:36.62496948;stroke-linejoin:round;stroke-miterlimit:4;stroke-dasharray:none;stroke-opacity:1" />
      <path
         sodipodi:nodetypes="cccccc"
         inkscape:connector-curvature="0"
         id="path4151"
         d="m 766.82881,294.11507 0,151.81996 147.14286,0 0,-91.42857 -59.35419,-60.39139 z"
         style="fill:none;fill-rule:evenodd;stroke:#000000;stroke-width:36.62496948;stroke-linecap:butt;stroke-linejoin:round;stroke-miterlimit:4;stroke-dasharray:none;stroke-opacity:1" />
      <circle
         r="34.285702"
         cy="486.64929"
         cx="548.25739"
         id="path4153"
         style="opacity:1;fill:none;fill-opacity:0.55900622;stroke:#000000;stroke-width:36.62496948;stroke-linejoin:round;stroke-miterlimit:4;stroke-dasharray:none;stroke-opacity:1" />
      <circle
         style="opacity:1;fill:none;fill-opacity:0.55900622;stroke:#000000;stroke-width:36.62496948;stroke-linejoin:round;stroke-miterlimit:4;stroke-dasharray:none;stroke-opacity:1"
         id="circle4155"
         cx="821.82739"
         cy="486.64929"
         r="34.285702" />
      <path
         inkscape:connector-curvature="0"
         id="path4157"
         d="m 388,336.64787 210.00001,0"
         style="fill:none;fill-rule:evenodd;stroke:#000000;stroke-width:36.62496948;stroke-linecap:round;stroke-linejoin:miter;stroke-miterlimit:4;stroke-dasharray:none;stroke-opacity:1" />
      <path
         inkscape:connector-curvature="0"
         id="path4159"
         d="m 543.71429,279.50501 54.28572,57.14286"
         style="fill:none;fill-rule:evenodd;stroke:#000000;stroke-width:36.62496948;stroke-linecap:round;stroke-linejoin:miter;stroke-miterlimit:4;stroke-dasharray:none;stroke-opacity:1" />
      <path
         style="fill:none;fill-rule:evenodd;stroke:#000000;stroke-width:36.62496948;stroke-linecap:round;stroke-linejoin:miter;stroke-miterlimit:4;stroke-dasharray:none;stroke-opacity:1"
         d="m 543.71429,393.79073 54.28572,-57.14286"
         id="path4161"
         inkscape:connector-curvature="0" />
    </g>
    <ellipse
       style="opacity:1;fill:none;fill-opacity:0.55900622;stroke:#000000;stroke-width:0;stroke-linecap:round;stroke-linejoin:round;stroke-miterlimit:4;stroke-dasharray:none;stroke-opacity:1"
       id="ellipse4177"
       cx="-370.85645"
       cy="560.93359"
       ry="0"
       rx="135.6169"
       transform="scale(-1,1)" />
    <g
       id="g4199"
       transform="translate(574.28573,5.6124837)"
       style="fill:#000000">
      <path
         inkscape:connector-curvature="0"
         id="path4187"
         d="m 370.85741,249.57553 c -32.14511,64.95311 -88.07003,122.91248 -96.42969,194.86132 a 96.428574,96.428574 0 0 0 48.21485,83.50976 96.428574,96.428574 0 0 0 96.42969,0 96.428574,96.428574 0 0 0 48.21289,-83.50976 c -5.10777,-70.10332 -64.18276,-129.927 -96.42774,-194.86132 z"
         style="opacity:1;fill:#000000;fill-opacity:1;stroke:none;stroke-width:30;stroke-linecap:round;stroke-linejoin:round;stroke-miterlimit:4;stroke-dasharray:none;stroke-opacity:1" />
      <path
         sodipodi:nodetypes="ccsssssssccssssssscccsssssssccsssssssccscscssscscccsssssc"
         inkscape:connector-curvature="0"
         id="path4173"
         d="m 478.75975,457.2051 c -1.02976,9.47263 -3.25277,18.68861 -6.57422,27.44531 16.19667,4.41411 30.90544,9.81553 43.67188,15.98047 36.1508,17.4573 54.64257,39.67879 54.64257,60.30273 0,20.62395 -18.49177,42.84545 -54.64257,60.30273 -36.1508,17.45732 -87.8223,28.82813 -145.00196,28.82813 -57.17966,0 -108.8492,-11.37082 -144.99999,-28.82813 -36.1508,-17.4573 -54.64258,-39.67878 -54.64258,-60.30273 0,-20.62394 18.49178,-42.84543 54.64258,-60.30273 11.40114,-5.50564 24.34915,-10.40409 38.52343,-14.53321 -3.44497,-8.71299 -5.80682,-17.89151 -6.96875,-27.34375 -15.85611,4.58977 -30.55065,10.13651 -43.79296,16.53125 -41.19922,19.89519 -70.55079,49.2744 -70.55079,85.64844 0,36.37405 29.35157,65.75325 70.55079,85.64844 41.19921,19.8952 96.38577,31.6289 157.23827,31.6289 60.8525,0 116.04102,-11.7337 157.24024,-31.6289 41.19922,-19.89519 70.55078,-49.27439 70.55078,-85.64844 0,-36.37404 -29.35156,-65.75325 -70.55078,-85.64844 -14.77199,-7.13342 -31.35083,-13.20976 -49.33594,-18.08007 z m -12.62305,40.70312 c -4.90123,9.1188 -11.07252,17.54034 -18.34375,25.00781 4.42958,1.62252 8.59756,3.36343 12.43555,5.2168 21.8514,10.55209 31.24414,23.10993 31.24414,32.80078 0,9.69086 -9.39274,22.24868 -31.24414,32.80078 -21.85141,10.55209 -53.87886,17.68946 -89.37109,17.68945 -35.49222,0 -67.52165,-7.13736 -89.37305,-17.68945 -21.85141,-10.5521 -31.24414,-23.10992 -31.24414,-32.80078 0,-9.69085 9.39273,-22.24869 31.24414,-32.80078 2.61617,-1.26335 5.38682,-2.47374 8.2832,-3.63281 -7.40686,-7.30765 -13.7236,-15.58934 -18.79687,-24.57813 -0.85212,0.39311 -1.69706,0.79154 -2.53321,1.19531 -27.23226,13.15052 -48.19726,33.33831 -48.19726,59.81641 0,26.47811 20.965,46.66589 48.19726,59.81641 27.23226,13.15052 63.01105,20.67383 102.41797,20.67382 39.40692,0 75.18767,-7.5233 102.41992,-20.67382 27.23226,-13.15052 48.19727,-33.3383 48.19727,-59.81641 0,-26.4781 -20.965,-46.66589 -48.19727,-59.81641 -2.31153,-1.11624 -4.70699,-2.17498 -7.13867,-3.20898 z m -36.21093,39.88867 c -2.02096,1.35107 -4.09375,2.64335 -6.2168,3.86914 -8.76971,5.06328 -18.06286,8.83056 -27.61133,11.31641 2.66212,0.81774 5.04834,1.7325 7.06641,2.70703 5.21571,2.51868 6.81191,4.62804 7.32617,5.24414 -0.51426,0.61611 -2.11046,2.72547 -7.32617,5.24414 -7.24711,3.49965 -19.10176,6.27344 -32.3086,6.27344 -13.20684,0 -25.05953,-2.77379 -32.30664,-6.27344 -5.2157,-2.51867 -6.81191,-4.62803 -7.32617,-5.24414 0.51426,-0.6161 2.11047,-2.72546 7.32617,-5.24414 1.37855,-0.6657 2.92566,-1.30522 4.61524,-1.9043 -10.69762,-2.44195 -21.11589,-6.47898 -30.88477,-12.11914 -0.91934,-0.53077 -1.82421,-1.08015 -2.72461,-1.63476 -5.1496,5.54455 -8.61328,12.45547 -8.61328,20.90234 0,15.71645 11.93452,26.15973 24.5625,32.25781 12.62797,6.09807 28.23199,9.25977 45.35352,9.25977 17.12153,0 32.72359,-3.1617 45.35156,-9.25977 12.62798,-6.09808 24.5625,-16.54136 24.5625,-32.25781 0,-9.61956 -4.48123,-17.25534 -10.8457,-23.13672 z"
         style="color:#000000;font-style:normal;font-variant:normal;font-weight:normal;font-stretch:normal;font-size:medium;line-height:normal;font-family:sans-serif;text-indent:0;text-align:start;text-decoration:none;text-decoration-line:none;text-decoration-style:solid;text-decoration-color:#000000;letter-spacing:normal;word-spacing:normal;text-transform:none;direction:ltr;block-progression:tb;writing-mode:lr-tb;baseline-shift:baseline;text-anchor:start;white-space:normal;clip-rule:nonzero;display:inline;overflow:visible;visibility:visible;opacity:1;isolation:auto;mix-blend-mode:normal;color-interpolation:sRGB;color-interpolation-filters:linearRGB;solid-color:#000000;solid-opacity:1;fill:#000000;fill-opacity:1;fill-rule:nonzero;stroke:none;stroke-width:28.1465416;stroke-linecap:round;stroke-linejoin:round;stroke-miterlimit:4;stroke-dasharray:none;stroke-dashoffset:0;stroke-opacity:1;color-rendering:auto;image-rendering:auto;shape-rendering:auto;text-rendering:auto;enable-background:accumulate" />
    </g>
    <path
       inkscape:connector-curvature="0"
       style="fill:none;fill-opacity:1;stroke:#ffffff;stroke-width:30;stroke-linejoin:round;stroke-miterlimit:4.0999999;stroke-dasharray:none"
       d="m 157.1403,340.02838 1.13831,258.95468 93.08557,-93.08565 A 176.39873,88.19937 0 0 0 408.16835,553.75067 176.39873,88.19937 0 0 0 584.57255,465.54884 176.39873,88.19937 0 0 0 408.16835,377.347 176.39873,88.19937 0 0 0 249.67668,427.09236 L 157.1403,340.02838 Z"
       id="path4950-7" />
  </g>
</svg>
